{
  "accessors": [
    {
      "bufferView": 2,
      "componentType": 5126,
      "count": 230,
      "max": [
        -32.5020751953125,
        1.6405835151672363,
        4.966343879699707
      ],
      "min": [
        -32.791877746582031,
        0.59408533573150635,
        4.6765413284301758
      ],
      "type": "VEC3"
    },
    {
      "bufferView": 2,
      "byteOffset": 2760,
      "componentType": 5126,
      "count": 230,
      "max": [
        0.98079103231430054,
        1,
        0.98078387975692749
      ],
      "min": [
        -0.98079103231430054,
        -1,
        -0.9807855486869812
      ],
      "type": "VEC3"
    },
    {
      "bufferView": 3,
      "componentType": 5126,
      "count": 230,
      "max": [
        0.9807855486869812,
        1.0473166828413056e-14,
        0.98079103231430054,
        1
      ],
      "min": [
        -0.98078393936157227,
        -6.0935210870194378e-12,
        -0.98079103231430054,
        -1
      ],
      "type": "VEC4"
    },
    {
      "bufferView": 3,
      "byteOffset": 3680,
      "componentType": 5126,
      "count": 230,
      "max": [
        1,
        1,
        1,
        1
      ],
      "min": [
        1,
        1,
        1,
        1
      ],
      "type": "VEC4"
    },
    {
      "bufferView": 1,
      "componentType": 5126,
      "count": 230,
      "max": [
        0.9375,
        1
      ],
      "min": [
        -0.0625,
        0
      ],
      "type": "VEC2"
    },
    {
      "bufferView": 0,
      "componentType": 5125,
      "count": 576,
      "max": [
        229
      ],
      "min": [
        0
      ],
      "type": "SCALAR"
    },
    {
      "bufferView": 2,
      "byteOffset": 5520,
      "componentType": 5126,
      "count": 230,
      "max": [
        -33.06182861328125,
        1.6405835151672363,
        4.966343879699707
      ],
      "min": [
        -33.351631164550781,
        0.59408533573150635,
        4.6765413284301758
      ],
      "type": "VEC3"
    },
    {
      "bufferView": 2,
      "byteOffset": 8280,
      "componentType": 5126,
      "count": 230,
      "max": [
        0.98079103231430054,
        1,
        0.98078387975692749
      ],
      "min": [
        -0.98079103231430054,
        -1,
        -0.9807855486869812
      ],
      "type": "VEC3"
    },
    {
      "bufferView": 3,
      "byteOffset": 7360,
      "componentType": 5126,
      "count": 230,
      "max": [
        0.9807855486869812,
        1.0473166828413056e-14,
        0.98079103231430054,
        1
      ],
      "min": [
        -0.98078393936157227,
        -6.0935210870194378e-12,
        -0.98079103231430054,
        -1
      ],
      "type": "VEC4"
    },
    {
      "bufferView": 3,
      "byteOffset": 11040,
      "componentType": 5126,
      "count": 230,
      "max": [
        1,
        1,
        1,
        1
      ],
      "min": [
        1,
        1,
        1,
        1
      ],
      "type": "VEC4"
    },
    {
      "bufferView": 1,
      "byteOffset": 1840,
      "componentType": 5126,
      "count": 230,
      "max": [
        0.9375,
        1
      ],
      "min": [
        -0.0625,
        0
      ],
      "type": "VEC2"
    },
    {
      "bufferView": 0,
      "byteOffset": 2304,
      "componentType": 5125,
      "count": 576,
      "max": [
        229
      ],
      "min": [
        0
      ],
      "type": "SCALAR"
    },
    {
      "bufferView": 2,
      "byteOffset": 11040,
      "componentType": 5126,
      "count": 141,
      "max": [
        -35.221652984619141,
        1.6405833959579468,
        5.0173006057739258
      ],
      "min": [
        -36.296108245849609,
        0.5940852165222168,
        3.942845344543457
      ],
      "type": "VEC3"
    },
    {
      "bufferView": 2,
      "byteOffset": 12732,
      "componentType": 5126,
      "count": 141,
      "max": [
        1,
        1,
        1
      ],
      "min": [
        -1,
        -1,
        -1
      ],
      "type": "VEC3"
    },
    {
      "bufferView": 3,
      "byteOffset": 14720,
      "componentType": 5126,
      "count": 141,
      "max": [
        1,
        2.6693021482060431e-07,
        1,
        1
      ],
      "min": [
        -1,
        -2.3734753540338716e-07,
        -1,
        -1
      ],
      "type": "VEC4"
    },
    {
      "bufferView": 3,
      "byteOffset": 16976,
      "componentType": 5126,
      "count": 141,
      "max": [
        1,
        1,
        1,
        1
      ],
      "min": [
        1,
        1,
        1,
        1
      ],
      "type": "VEC4"
    },
    {
      "bufferView": 1,
      "byteOffset": 3680,
      "componentType": 5126,
      "count": 141,
      "max": [
        0.9375,
        1
      ],
      "min": [
        -0.0625,
        0
      ],
      "type": "VEC2"
    },
    {
      "bufferView": 0,
      "byteOffset": 4608,
      "componentType": 5125,
      "count": 576,
      "max": [
        140
      ],
      "min": [
        0
      ],
      "type": "SCALAR"
    },
    {
      "bufferView": 2,
      "byteOffset": 14424,
      "componentType": 5126,
      "count": 231,
      "max": [
        -33.575202941894531,
        1.6405833959579468,
        5.0173006057739258
      ],
      "min": [
        -34.649658203125,
        0.5940852165222168,
        3.942845344543457
      ],
      "type": "VEC3"
    },
    {
      "bufferView": 2,
      "byteOffset": 17196,
      "componentType": 5126,
      "count": 231,
      "max": [
        0.98078572750091553,
        1,
        0.9807855486869812
      ],
      "min": [
        -0.98078572750091553,
        -1,
        -0.9807855486869812
      ],
      "type": "VEC3"
    },
    {
      "bufferView": 3,
      "byteOffset": 19232,
      "componentType": 5126,
      "count": 231,
      "max": [
        0.9807855486869812,
        3.6728957297782472e-07,
        0.98078572750091553,
        1
      ],
      "min": [
        -0.9807855486869812,
        -3.6728897612192668e-07,
        -0.98078584671020508,
        -1
      ],
      "type": "VEC4"
    },
    {
      "bufferView": 3,
      "byteOffset": 22928,
      "componentType": 5126,
      "count": 231,
      "max": [
        1,
        1,
        1,
        1
      ],
      "min": [
        1,
        1,
        1,
        1
      ],
      "type": "VEC4"
    },
    {
      "bufferView": 1,
      "byteOffset": 4808,
      "componentType": 5126,
      "count": 231,
      "max": [
        0.9375,
        1
      ],
      "min": [
        -0.0625,
        0
      ],
      "type": "VEC2"
    },
    {
      "bufferView": 0,
      "byteOffset": 6912,
      "componentType": 5125,
      "count": 576,
      "max": [
        230
      ],
      "min": [
        0
      ],
      "type": "SCALAR"
    },
    {
      "bufferView": 2,
      "byteOffset": 19968,
      "componentType": 5126,
      "count": 1293,
      "max": [
        24.941251754760742,
        2.9257500171661377,
        11.084997177124023
      ],
      "min": [
        -71.467750549316406,
        -0.78738343715667725,
        -2.1445114612579346
      ],
      "type": "VEC3"
    },
    {
      "bufferView": 2,
      "byteOffset": 35484,
      "componentType": 5126,
      "count": 1293,
      "max": [
        1,
        1,
        1
      ],
      "min": [
        -1,
        -1,
        -1
      ],
      "type": "VEC3"
    },
    {
      "bufferView": 3,
      "byteOffset": 26624,
      "componentType": 5126,
      "count": 1293,
      "max": [
        1,
        1,
        1,
        1
      ],
      "min": [
        -1,
        -1,
        -0.92730790376663208,
        -1
      ],
      "type": "VEC4"
    },
    {
      "bufferView": 3,
      "byteOffset": 47312,
      "componentType": 5126,
      "count": 1293,
      "max": [
        1,
        1,
        1,
        1
      ],
      "min": [
        1,
        1,
        1,
        1
      ],
      "type": "VEC4"
    },
    {
      "bufferView": 1,
      "byteOffset": 6656,
      "componentType": 5126,
      "count": 1293,
      "max": [
        0.99445182085037231,
        0.97217899560928345
      ],
      "min": [
        0.0041554281488060951,
        0.0078412890434265137
      ],
      "type": "VEC2"
    },
    {
      "bufferView": 0,
      "byteOffset": 9216,
      "componentType": 5125,
      "count": 2079,
      "max": [
        1292
      ],
      "min": [
        0
      ],
      "type": "SCALAR"
    }
  ],
  "asset": {
    "extras": {
      "author": "hrydell (https://sketchfab.com/hrydell)",
      "license": "CC-BY-4.0 (http://creativecommons.org/licenses/by/4.0/)",
      "source": "https://sketchfab.com/3d-models/katana-textured-3fe8ec35c192430a9571021e8b94cc53",
      "title": "Katana Textured"
    },
    "generator": "Sketchfab-6.36.0",
    "version": "2.0"
  },
  "bufferViews": [
    {
      "buffer": 0,
      "byteLength": 17532,
      "byteOffset": 0,
      "name": "floatBufferViews",
      "target": 34963
    },
    {
      "buffer": 0,
      "byteLength": 17000,
      "byteOffset": 17532,
      "byteStride": 8,
      "name": "floatBufferViews",
      "target": 34962
    },
    {
      "buffer": 0,
      "byteLength": 51000,
      "byteOffset": 34532,
      "byteStride": 12,
      "name": "floatBufferViews",
      "target": 34962
    },
    {
      "buffer": 0,
      "byteLength": 68000,
      "byteOffset": 85532,
      "byteStride": 16,
      "name": "floatBufferViews",
      "target": 34962
    }
  ],
  "buffers": [
    {
      "byteLength": 153532,
      "uri": "scene.bin"
    }
  ],
  "images": [
    {
      "uri": "textures/13_-_Default_baseColor.jpeg"
    }
  ],
  "materials": [
    {
      "doubleSided": true,
      "emissiveFactor": [
        0,
        0,
        0
      ],
      "name": "13_-_Default",
      "pbrMetallicRoughness": {
        "baseColorFactor": [
          1,
          1,
          1,
          1
        ],
        "baseColorTexture": {
          "index": 0,
          "texCoord": 0
        },
        "metallicFactor": 0,
        "roughnessFactor": 0.59999999999999998
      }
    },
    {
      "doubleSided": true,
      "emissiveFactor": [
        0,
        0,
        0
      ],
      "name": "15_-_Default",
      "pbrMetallicRoughness": {
        "baseColorFactor": [
          0,
          0,
          0,
          1
        ],
        "metallicFactor": 0.26833334258108427,
        "roughnessFactor": 1
      }
    }
  ],
  "meshes": [
    {
      "primitives": [
        {
          "attributes": {
            "COLOR_0": 3,
            "NORMAL": 1,
            "POSITION": 0,
            "TANGENT": 2,
            "TEXCOORD_0": 4
          },
          "indices": 5,
          "material": 1,
          "mode": 4
        }
      ]
    },
    {
      "primitives": [
        {
          "attributes": {
            "COLOR_0": 9,
            "NORMAL": 7,
            "POSITION": 6,
            "TANGENT": 8,
            "TEXCOORD_0": 10
          },
          "indices": 11,
          "material": 1,
          "mode": 4
        }
      ]
    },
    {
      "primitives": [
        {
          "attributes": {
            "COLOR_0": 15,
            "NORMAL": 13,
            "POSITION": 12,
            "TANGENT": 14,
            "TEXCOORD_0": 16
          },
          "indices": 17,
          "material": 1,
          "mode": 4
        }
      ]
    },
    {
      "primitives": [
        {
          "attributes": {
            "COLOR_0": 21,
            "NORMAL": 19,
            "POSITION": 18,
            "TANGENT": 20,
            "TEXCOORD_0": 22
          },
          "indices": 23,
          "material": 1,
          "mode": 4
        }
      ]
    },
    {
      "primitives": [
        {
          "attributes": {
            "COLOR_0": 27,
            "NORMAL": 25,
            "POSITION": 24,
            "TANGENT": 26,
            "TEXCOORD_0": 28
          },
          "indices": 29,
          "material": 0,
          "mode": 4
        }
      ]
    }
  ],
  "nodes": [
    {
      "children": [
        1
      ],
      "name": "RootNode (gltf orientation matrix)",
      "rotation": [
        -0.70710678118654746,
        -0,
        -0,
        0.70710678118654757
      ]
    },
    {
      "children": [
        2
      ],
      "matrix": [
        0.87659251689910889,
        -0.47993463277816772,
        0.035331103950738907,
        0,
        0.48123335838317871,
        0.87422686815261841,
        -0.064357511699199677,
        0,
        3.4694469519536142e-18,
        0.073417820036411285,
        0.99730128049850464,
        0,
        -3.3850290775299072,
        -11.359109878540039,
        0.9027593731880188,
        1
      ],
      "name": "RootNode (model correction matrix)"
    },
    {
      "children": [
        3,
        6,
        9,
        12,
        15
      ],
      "name": "b7269386cadc422986733dd78c61a0d5.3ds"
    },
    {
      "children": [
        4
      ],
      "matrix": [
        0.14708641171455383,
        0,
        0,
        0,
        0,
        0,
        0.14708641171455383,
        0,
        0,
        -0.56238949298858643,
        0,
        0,
        -32.646976470947266,
        0.59408533573150635,
        4.8214426040649414,
        1
      ],
      "name": "Cylinder03"
    },
    {
      "children": [
        5
      ],
      "matrix": [
        6.7987245615908423,
        0,
        0,
        0,
        0,
        -2.9718167911271099e-07,
        -1.7781271031325849,
        0,
        0,
        6.7987245615908298,
        -7.772440446318591e-08,
        0,
        221.95780079470748,
        -32.779660078005492,
        1.0563596117815677,
        1
      ],
      "name": "3DSMeshMatrix"
    },
    {
      "mesh": 0,
      "name": ""
    },
    {
      "children": [
        7
      ],
      "matrix": [
        0.14708641171455383,
        0,
        0,
        0,
        0,
        0,
        0.14708641171455383,
        0,
        0,
        -0.56238949298858643,
        0,
        0,
        -33.206729888916016,
        0.59408533573150635,
        4.8214426040649414,
        1
      ],
      "name": "Cylinder02"
    },
    {
      "children": [
        8
      ],
      "matrix": [
        6.7987245615908423,
        0,
        0,
        0,
        0,
        -2.9718167911271099e-07,
        -1.7781271031325849,
        0,
        0,
        6.7987245615908298,
        -7.772440446318591e-08,
        0,
        225.76341010588607,
        -32.779660078005492,
        1.0563596117815677,
        1
      ],
      "name": "3DSMeshMatrix"
    },
    {
      "mesh": 1,
      "name": ""
    },
    {
      "children": [
        10
      ],
      "matrix": [
        0.54532986879348755,
        0,
        0,
        0,
        0,
        0,
        0.54532986879348755,
        0,
        0,
        -0.56238949298858643,
        0,
        0,
        -35.758880615234375,
        0.5940852165222168,
        4.4800729751586914,
        1
      ],
      "name": "Cylinder01"
    },
    {
      "children": [
        11
      ],
      "matrix": [
        1.8337524812503765,
        0,
        0,
        0,
        0,
        -8.0155864018055092e-08,
        -1.7781271031325843,
        0,
        0,
        1.8337524812503727,
        -7.7724405570345865e-08,
        0,
        65.572936054922025,
        -8.2153448867605761,
        1.0563593732795524,
        1
      ],
      "name": "3DSMeshMatrix"
    },
    {
      "mesh": 2,
      "name": ""
    },
    {
      "children": [
        13
      ],
      "matrix": [
        0.54532986879348755,
        0,
        0,
        0,
        0,
        0,
        0.54532986879348755,
        0,
        0,
        -0.56238949298858643,
        0,
        0,
        -34.112430572509766,
        0.5940852165222168,
        4.4800729751586914,
        1
      ],
      "name": "Cylinder00"
    },
    {
      "children": [
        14
      ],
      "matrix": [
        1.8337524812503765,
        0,
        0,
        0,
        0,
        -8.0155864018055092e-08,
        -1.7781271031325843,
        0,
        0,
        1.8337524812503727,
        -7.7724405570345865e-08,
        0,
        62.553754203820986,
        -8.2153448867605761,
        1.0563593732795524,
        1
      ],
      "name": "3DSMeshMatrix"
    },
    {
      "mesh": 3,
      "name": ""
    },
    {
      "children": [
        16
      ],
      "matrix": [
        1,
        0,
        0,
        0,
        0,
        0.28517287969589233,
        0,
        0,
        0,
        0,
        0.70567852258682251,
        0,
        0,
        0,
        0,
        1
      ],
      "name": "Box001"
    },
    {
      "children": [
        17
      ],
      "matrix": [
        1,
        0,
        0,
        0,
        0,
        3.506644815125469,
        0,
        0,
        0,
        0,
        1.4170758610227732,
        0,
        -0.0010000000474974513,
        -0.0035066449816821602,
        -0.0014170759283302649,
        1
      ],
      "name": "3DSMeshMatrix"
    },
    {
      "mesh": 4,
      "name": ""
    }
  ],
  "samplers": [
    {
      "magFilter": 9729,
      "minFilter": 9987,
      "wrapS": 10497,
      "wrapT": 10497
    }
  ],
  "scene": 0,
  "scenes": [
    {
      "name": "OSG_Scene",
      "nodes": [
        0
      ]
    }
  ],
  "textures": [
    {
      "sampler": 0,
      "source": 0
    }
  ]
}

